<?xml version="1.0" standalone="no"?>
<!DOCTYPE svg PUBLIC "-//W3C//DTD SVG 20010904//EN"
 "http://www.w3.org/TR/2001/REC-SVG-20010904/DTD/svg10.dtd">
<svg version="1.0" xmlns="http://www.w3.org/2000/svg"
 width="936.000000pt" height="936.000000pt" viewBox="0 0 936.000000 936.000000"
 preserveAspectRatio="xMidYMid meet">

<g transform="translate(0.000000,936.000000) scale(0.100000,-0.100000)"
fill="#000000" stroke="none">
<path d="M4996 4729 c-69 -19 -106 -100 -126 -272 -19 -155 7 -137 -199 -137
l-178 0 -16 123 c-20 146 -42 220 -78 258 -23 25 -34 29 -82 29 -45 0 -63 -6
-103 -32 -96 -65 -166 -191 -168 -303 -2 -121 48 -155 236 -163 96 -4 118 -7
123 -21 4 -9 9 -251 12 -537 5 -472 7 -521 22 -518 9 1 29 6 45 9 l28 6 -4
529 -3 530 173 0 174 0 -6 -22 c-4 -13 -10 -243 -13 -512 -6 -461 -5 -489 11
-483 10 4 30 7 45 7 l28 0 7 443 c3 243 9 470 12 503 l7 62 121 4 c140 4 187
21 218 78 82 155 -127 462 -286 419z m-641 -142 c8 -29 21 -99 28 -156 12 -88
12 -104 -1 -108 -21 -9 -201 6 -223 18 -24 12 -26 83 -4 137 36 86 112 162
162 162 18 0 25 -9 38 -53z m753 6 c27 -27 58 -68 70 -93 25 -53 37 -129 23
-149 -11 -17 -84 -30 -180 -30 l-74 -1 7 73 c9 86 32 201 46 228 18 33 57 23
108 -28z"/>
<path d="M5085 2935 c-33 -7 -166 -25 -295 -39 -372 -42 -540 -69 -540 -86 0
-17 18 -19 64 -5 25 8 183 30 349 50 166 19 316 38 332 41 98 19 165 37 165
45 0 11 2 11 -75 -6z"/>
<path d="M5100 2614 c-30 -7 -158 -24 -285 -39 -291 -32 -507 -63 -542 -76
-17 -6 -23 -13 -16 -20 6 -6 30 -4 69 5 32 8 120 22 194 31 448 53 572 71 629
93 41 15 9 19 -49 6z"/>
<path d="M5119 2296 c-6 -7 -201 -33 -416 -56 -222 -24 -434 -57 -446 -69 -19
-19 17 -22 81 -7 37 8 148 24 247 36 401 46 535 67 572 89 16 9 15 10 -8 11
-14 0 -28 -2 -30 -4z"/>
<path d="M4845 1924 c-49 -7 -162 -23 -250 -34 -88 -12 -163 -24 -167 -27 -13
-7 -9 -23 5 -23 8 0 24 -22 37 -49 45 -97 118 -141 235 -141 141 0 203 49 265
211 33 89 37 87 -125 63z"/>
</g>
</svg>
